# xmcd CD database file
#
# Track frame offsets:
#	183
#	15925
#	28220
#	49105
#	70098
#	87810
#	107428
#	126598
#	144298
#	158363
#	174525
#	190793
#	205763
#	226198
#	243335
#	258345
#	277555
#	294993
#
# Disc length: 4175 seconds
#
# Revision: 1
# Processed by: cddbd v1.5.1PL0 Copyright (c) Steve Scherf et al.
# Submitted via: CDex 1.51
#
DISCID=e0104d12
DTITLE=Various Artist - Gefühle - Vol.8 - Die schönsten romantischen Schlager
DYEAR=1900
DGENRE=Oldies
TTITLE0=Howard Carpendale - Deine Spuren im Sand
TTITLE1=Marion - Wer die Liebe sucht
TTITLE2=Pussycat - Mississippi
TTITLE3=Dalida - Mein lieber Herr
TTITLE4=Rex Gildo - Schließ die Augen wenn du glücklich bist
TTITLE5=Mary Roos - Die Einsamkeit in meinem Zimmer
TTITLE6=Marianne Rosenberg - Marleen
TTITLE7=Costa Cordalis - Die Blumen der Nacht
TTITLE8=Ina Deter - Wenn du so bist wie dein Lachen
TTITLE9=Stefn Hallberg - Irgendwann war es Liebe
TTITLE10=Michael Schanze - Es ist Morgen und ich liebe dich noch immer
TTITLE11=Ingrid Peters - Alle meine Träume
TTITLE12=Hoffmann and Hoffmann - Trag mich zu den Sternen
TTITLE13=Vicky Leandros - Ob wir uns wiederseh'n
TTITLE14=Lena Valaitis - Ein schöner Tag
TTITLE15=Peter Alexander - Pass gut auf dich auf, mein Kind
TTITLE16=Peter, Sue and Marc - Cindy
TTITLE17=Roland Kaiser - Frei, das heißt allein
EXTD=
EXTT0=
EXTT1=
EXTT2=
EXTT3=
EXTT4=
EXTT5=
EXTT6=
EXTT7=
EXTT8=
EXTT9=
EXTT10=
EXTT11=
EXTT12=
EXTT13=
EXTT14=
EXTT15=
EXTT16=
EXTT17=
PLAYORDER=
